%TF.GenerationSoftware,KiCad,Pcbnew,(6.0.7)*%
%TF.CreationDate,2022-11-22T16:32:00-03:00*%
%TF.ProjectId,BigKeysPCB,4269674b-6579-4735-9043-422e6b696361,rev?*%
%TF.SameCoordinates,Original*%
%TF.FileFunction,Legend,Bot*%
%TF.FilePolarity,Positive*%
%FSLAX46Y46*%
G04 Gerber Fmt 4.6, Leading zero omitted, Abs format (unit mm)*
G04 Created by KiCad (PCBNEW (6.0.7)) date 2022-11-22 16:32:00*
%MOMM*%
%LPD*%
G01*
G04 APERTURE LIST*
%ADD10C,0.150000*%
%ADD11C,0.120000*%
G04 APERTURE END LIST*
D10*
%TO.C,C7*%
X156916142Y-59623814D02*
X156963761Y-59576195D01*
X157011380Y-59433338D01*
X157011380Y-59338100D01*
X156963761Y-59195242D01*
X156868523Y-59100004D01*
X156773285Y-59052385D01*
X156582809Y-59004766D01*
X156439952Y-59004766D01*
X156249476Y-59052385D01*
X156154238Y-59100004D01*
X156059000Y-59195242D01*
X156011380Y-59338100D01*
X156011380Y-59433338D01*
X156059000Y-59576195D01*
X156106619Y-59623814D01*
X156011380Y-59957147D02*
X156011380Y-60623814D01*
X157011380Y-60195242D01*
%TO.C,C5*%
X173725642Y-52147564D02*
X173773261Y-52099945D01*
X173820880Y-51957088D01*
X173820880Y-51861850D01*
X173773261Y-51718992D01*
X173678023Y-51623754D01*
X173582785Y-51576135D01*
X173392309Y-51528516D01*
X173249452Y-51528516D01*
X173058976Y-51576135D01*
X172963738Y-51623754D01*
X172868500Y-51718992D01*
X172820880Y-51861850D01*
X172820880Y-51957088D01*
X172868500Y-52099945D01*
X172916119Y-52147564D01*
X172820880Y-53052326D02*
X172820880Y-52576135D01*
X173297071Y-52528516D01*
X173249452Y-52576135D01*
X173201833Y-52671373D01*
X173201833Y-52909469D01*
X173249452Y-53004707D01*
X173297071Y-53052326D01*
X173392309Y-53099945D01*
X173630404Y-53099945D01*
X173725642Y-53052326D01*
X173773261Y-53004707D01*
X173820880Y-52909469D01*
X173820880Y-52671373D01*
X173773261Y-52576135D01*
X173725642Y-52528516D01*
%TO.C,R2*%
X144494380Y-53554333D02*
X144018190Y-53221000D01*
X144494380Y-52982904D02*
X143494380Y-52982904D01*
X143494380Y-53363857D01*
X143542000Y-53459095D01*
X143589619Y-53506714D01*
X143684857Y-53554333D01*
X143827714Y-53554333D01*
X143922952Y-53506714D01*
X143970571Y-53459095D01*
X144018190Y-53363857D01*
X144018190Y-52982904D01*
X143589619Y-53935285D02*
X143542000Y-53982904D01*
X143494380Y-54078142D01*
X143494380Y-54316238D01*
X143542000Y-54411476D01*
X143589619Y-54459095D01*
X143684857Y-54506714D01*
X143780095Y-54506714D01*
X143922952Y-54459095D01*
X144494380Y-53887666D01*
X144494380Y-54506714D01*
%TO.C,Y1*%
X174231690Y-42144671D02*
X174231690Y-42620861D01*
X174565023Y-41620861D02*
X174231690Y-42144671D01*
X173898357Y-41620861D01*
X173041214Y-42620861D02*
X173612642Y-42620861D01*
X173326928Y-42620861D02*
X173326928Y-41620861D01*
X173422166Y-41763719D01*
X173517404Y-41858957D01*
X173612642Y-41906576D01*
%TO.C,C6*%
X169327666Y-61737623D02*
X169375285Y-61785242D01*
X169518142Y-61832861D01*
X169613380Y-61832861D01*
X169756238Y-61785242D01*
X169851476Y-61690004D01*
X169899095Y-61594766D01*
X169946714Y-61404290D01*
X169946714Y-61261433D01*
X169899095Y-61070957D01*
X169851476Y-60975719D01*
X169756238Y-60880481D01*
X169613380Y-60832861D01*
X169518142Y-60832861D01*
X169375285Y-60880481D01*
X169327666Y-60928100D01*
X168470523Y-60832861D02*
X168661000Y-60832861D01*
X168756238Y-60880481D01*
X168803857Y-60928100D01*
X168899095Y-61070957D01*
X168946714Y-61261433D01*
X168946714Y-61642385D01*
X168899095Y-61737623D01*
X168851476Y-61785242D01*
X168756238Y-61832861D01*
X168565761Y-61832861D01*
X168470523Y-61785242D01*
X168422904Y-61737623D01*
X168375285Y-61642385D01*
X168375285Y-61404290D01*
X168422904Y-61309052D01*
X168470523Y-61261433D01*
X168565761Y-61213814D01*
X168756238Y-61213814D01*
X168851476Y-61261433D01*
X168899095Y-61309052D01*
X168946714Y-61404290D01*
%TO.C,USB1*%
X142318595Y-43484380D02*
X142318595Y-44293904D01*
X142270976Y-44389142D01*
X142223357Y-44436761D01*
X142128119Y-44484380D01*
X141937642Y-44484380D01*
X141842404Y-44436761D01*
X141794785Y-44389142D01*
X141747166Y-44293904D01*
X141747166Y-43484380D01*
X141318595Y-44436761D02*
X141175738Y-44484380D01*
X140937642Y-44484380D01*
X140842404Y-44436761D01*
X140794785Y-44389142D01*
X140747166Y-44293904D01*
X140747166Y-44198666D01*
X140794785Y-44103428D01*
X140842404Y-44055809D01*
X140937642Y-44008190D01*
X141128119Y-43960571D01*
X141223357Y-43912952D01*
X141270976Y-43865333D01*
X141318595Y-43770095D01*
X141318595Y-43674857D01*
X141270976Y-43579619D01*
X141223357Y-43532000D01*
X141128119Y-43484380D01*
X140890023Y-43484380D01*
X140747166Y-43532000D01*
X139985261Y-43960571D02*
X139842404Y-44008190D01*
X139794785Y-44055809D01*
X139747166Y-44151047D01*
X139747166Y-44293904D01*
X139794785Y-44389142D01*
X139842404Y-44436761D01*
X139937642Y-44484380D01*
X140318595Y-44484380D01*
X140318595Y-43484380D01*
X139985261Y-43484380D01*
X139890023Y-43532000D01*
X139842404Y-43579619D01*
X139794785Y-43674857D01*
X139794785Y-43770095D01*
X139842404Y-43865333D01*
X139890023Y-43912952D01*
X139985261Y-43960571D01*
X140318595Y-43960571D01*
X138794785Y-44484380D02*
X139366214Y-44484380D01*
X139080500Y-44484380D02*
X139080500Y-43484380D01*
X139175738Y-43627238D01*
X139270976Y-43722476D01*
X139366214Y-43770095D01*
%TO.C,D4*%
X185929880Y-141921904D02*
X184929880Y-141921904D01*
X184929880Y-142160000D01*
X184977500Y-142302857D01*
X185072738Y-142398095D01*
X185167976Y-142445714D01*
X185358452Y-142493333D01*
X185501309Y-142493333D01*
X185691785Y-142445714D01*
X185787023Y-142398095D01*
X185882261Y-142302857D01*
X185929880Y-142160000D01*
X185929880Y-141921904D01*
X185263214Y-143350476D02*
X185929880Y-143350476D01*
X184882261Y-143112380D02*
X185596547Y-142874285D01*
X185596547Y-143493333D01*
%TO.C,U1*%
X166017404Y-58870861D02*
X166017404Y-59680385D01*
X165969785Y-59775623D01*
X165922166Y-59823242D01*
X165826928Y-59870861D01*
X165636452Y-59870861D01*
X165541214Y-59823242D01*
X165493595Y-59775623D01*
X165445976Y-59680385D01*
X165445976Y-58870861D01*
X164445976Y-59870861D02*
X165017404Y-59870861D01*
X164731690Y-59870861D02*
X164731690Y-58870861D01*
X164826928Y-59013719D01*
X164922166Y-59108957D01*
X165017404Y-59156576D01*
%TO.C,R4*%
X172410380Y-58507333D02*
X171934190Y-58174000D01*
X172410380Y-57935904D02*
X171410380Y-57935904D01*
X171410380Y-58316857D01*
X171458000Y-58412095D01*
X171505619Y-58459714D01*
X171600857Y-58507333D01*
X171743714Y-58507333D01*
X171838952Y-58459714D01*
X171886571Y-58412095D01*
X171934190Y-58316857D01*
X171934190Y-57935904D01*
X171743714Y-59364476D02*
X172410380Y-59364476D01*
X171362761Y-59126380D02*
X172077047Y-58888285D01*
X172077047Y-59507333D01*
%TO.C,R3*%
X138431880Y-53772814D02*
X137955690Y-53439481D01*
X138431880Y-53201385D02*
X137431880Y-53201385D01*
X137431880Y-53582338D01*
X137479500Y-53677576D01*
X137527119Y-53725195D01*
X137622357Y-53772814D01*
X137765214Y-53772814D01*
X137860452Y-53725195D01*
X137908071Y-53677576D01*
X137955690Y-53582338D01*
X137955690Y-53201385D01*
X137431880Y-54106147D02*
X137431880Y-54725195D01*
X137812833Y-54391861D01*
X137812833Y-54534719D01*
X137860452Y-54629957D01*
X137908071Y-54677576D01*
X138003309Y-54725195D01*
X138241404Y-54725195D01*
X138336642Y-54677576D01*
X138384261Y-54629957D01*
X138431880Y-54534719D01*
X138431880Y-54249004D01*
X138384261Y-54153766D01*
X138336642Y-54106147D01*
%TO.C,R1*%
X156042880Y-48320814D02*
X155566690Y-47987481D01*
X156042880Y-47749385D02*
X155042880Y-47749385D01*
X155042880Y-48130338D01*
X155090500Y-48225576D01*
X155138119Y-48273195D01*
X155233357Y-48320814D01*
X155376214Y-48320814D01*
X155471452Y-48273195D01*
X155519071Y-48225576D01*
X155566690Y-48130338D01*
X155566690Y-47749385D01*
X156042880Y-49273195D02*
X156042880Y-48701766D01*
X156042880Y-48987481D02*
X155042880Y-48987481D01*
X155185738Y-48892242D01*
X155280976Y-48797004D01*
X155328595Y-48701766D01*
%TO.C,C3*%
X158659666Y-52464123D02*
X158707285Y-52511742D01*
X158850142Y-52559361D01*
X158945380Y-52559361D01*
X159088238Y-52511742D01*
X159183476Y-52416504D01*
X159231095Y-52321266D01*
X159278714Y-52130790D01*
X159278714Y-51987933D01*
X159231095Y-51797457D01*
X159183476Y-51702219D01*
X159088238Y-51606981D01*
X158945380Y-51559361D01*
X158850142Y-51559361D01*
X158707285Y-51606981D01*
X158659666Y-51654600D01*
X158326333Y-51559361D02*
X157707285Y-51559361D01*
X158040619Y-51940314D01*
X157897761Y-51940314D01*
X157802523Y-51987933D01*
X157754904Y-52035552D01*
X157707285Y-52130790D01*
X157707285Y-52368885D01*
X157754904Y-52464123D01*
X157802523Y-52511742D01*
X157897761Y-52559361D01*
X158183476Y-52559361D01*
X158278714Y-52511742D01*
X158326333Y-52464123D01*
%TO.C,C2*%
X171030142Y-44451814D02*
X171077761Y-44404195D01*
X171125380Y-44261338D01*
X171125380Y-44166100D01*
X171077761Y-44023242D01*
X170982523Y-43928004D01*
X170887285Y-43880385D01*
X170696809Y-43832766D01*
X170553952Y-43832766D01*
X170363476Y-43880385D01*
X170268238Y-43928004D01*
X170173000Y-44023242D01*
X170125380Y-44166100D01*
X170125380Y-44261338D01*
X170173000Y-44404195D01*
X170220619Y-44451814D01*
X170220619Y-44832766D02*
X170173000Y-44880385D01*
X170125380Y-44975623D01*
X170125380Y-45213719D01*
X170173000Y-45308957D01*
X170220619Y-45356576D01*
X170315857Y-45404195D01*
X170411095Y-45404195D01*
X170553952Y-45356576D01*
X171125380Y-44785147D01*
X171125380Y-45404195D01*
%TO.C,SW1*%
X118238833Y-57417242D02*
X118095976Y-57464861D01*
X117857880Y-57464861D01*
X117762642Y-57417242D01*
X117715023Y-57369623D01*
X117667404Y-57274385D01*
X117667404Y-57179147D01*
X117715023Y-57083909D01*
X117762642Y-57036290D01*
X117857880Y-56988671D01*
X118048357Y-56941052D01*
X118143595Y-56893433D01*
X118191214Y-56845814D01*
X118238833Y-56750576D01*
X118238833Y-56655338D01*
X118191214Y-56560100D01*
X118143595Y-56512481D01*
X118048357Y-56464861D01*
X117810261Y-56464861D01*
X117667404Y-56512481D01*
X117334071Y-56464861D02*
X117095976Y-57464861D01*
X116905500Y-56750576D01*
X116715023Y-57464861D01*
X116476928Y-56464861D01*
X115572166Y-57464861D02*
X116143595Y-57464861D01*
X115857880Y-57464861D02*
X115857880Y-56464861D01*
X115953119Y-56607719D01*
X116048357Y-56702957D01*
X116143595Y-56750576D01*
%TO.C,D2*%
X115929880Y-141921904D02*
X114929880Y-141921904D01*
X114929880Y-142160000D01*
X114977500Y-142302857D01*
X115072738Y-142398095D01*
X115167976Y-142445714D01*
X115358452Y-142493333D01*
X115501309Y-142493333D01*
X115691785Y-142445714D01*
X115787023Y-142398095D01*
X115882261Y-142302857D01*
X115929880Y-142160000D01*
X115929880Y-141921904D01*
X115025119Y-142874285D02*
X114977500Y-142921904D01*
X114929880Y-143017142D01*
X114929880Y-143255238D01*
X114977500Y-143350476D01*
X115025119Y-143398095D01*
X115120357Y-143445714D01*
X115215595Y-143445714D01*
X115358452Y-143398095D01*
X115929880Y-142826666D01*
X115929880Y-143445714D01*
%TO.C,C4*%
X162134142Y-48320814D02*
X162181761Y-48273195D01*
X162229380Y-48130338D01*
X162229380Y-48035100D01*
X162181761Y-47892242D01*
X162086523Y-47797004D01*
X161991285Y-47749385D01*
X161800809Y-47701766D01*
X161657952Y-47701766D01*
X161467476Y-47749385D01*
X161372238Y-47797004D01*
X161277000Y-47892242D01*
X161229380Y-48035100D01*
X161229380Y-48130338D01*
X161277000Y-48273195D01*
X161324619Y-48320814D01*
X161562714Y-49177957D02*
X162229380Y-49177957D01*
X161181761Y-48939861D02*
X161896047Y-48701766D01*
X161896047Y-49320814D01*
%TO.C,D1*%
X115929880Y-71921904D02*
X114929880Y-71921904D01*
X114929880Y-72160000D01*
X114977500Y-72302857D01*
X115072738Y-72398095D01*
X115167976Y-72445714D01*
X115358452Y-72493333D01*
X115501309Y-72493333D01*
X115691785Y-72445714D01*
X115787023Y-72398095D01*
X115882261Y-72302857D01*
X115929880Y-72160000D01*
X115929880Y-71921904D01*
X115929880Y-73445714D02*
X115929880Y-72874285D01*
X115929880Y-73160000D02*
X114929880Y-73160000D01*
X115072738Y-73064761D01*
X115167976Y-72969523D01*
X115215595Y-72874285D01*
%TO.C,F1*%
X132514071Y-56615147D02*
X132514071Y-56281814D01*
X133037880Y-56281814D02*
X132037880Y-56281814D01*
X132037880Y-56758004D01*
X133037880Y-57662766D02*
X133037880Y-57091338D01*
X133037880Y-57377052D02*
X132037880Y-57377052D01*
X132180738Y-57281814D01*
X132275976Y-57186576D01*
X132323595Y-57091338D01*
%TO.C,C1*%
X177195142Y-44451814D02*
X177242761Y-44404195D01*
X177290380Y-44261338D01*
X177290380Y-44166100D01*
X177242761Y-44023242D01*
X177147523Y-43928004D01*
X177052285Y-43880385D01*
X176861809Y-43832766D01*
X176718952Y-43832766D01*
X176528476Y-43880385D01*
X176433238Y-43928004D01*
X176338000Y-44023242D01*
X176290380Y-44166100D01*
X176290380Y-44261338D01*
X176338000Y-44404195D01*
X176385619Y-44451814D01*
X177290380Y-45404195D02*
X177290380Y-44832766D01*
X177290380Y-45118481D02*
X176290380Y-45118481D01*
X176433238Y-45023242D01*
X176528476Y-44928004D01*
X176576095Y-44832766D01*
%TO.C,D3*%
X185929880Y-71921904D02*
X184929880Y-71921904D01*
X184929880Y-72160000D01*
X184977500Y-72302857D01*
X185072738Y-72398095D01*
X185167976Y-72445714D01*
X185358452Y-72493333D01*
X185501309Y-72493333D01*
X185691785Y-72445714D01*
X185787023Y-72398095D01*
X185882261Y-72302857D01*
X185929880Y-72160000D01*
X185929880Y-71921904D01*
X184929880Y-72826666D02*
X184929880Y-73445714D01*
X185310833Y-73112380D01*
X185310833Y-73255238D01*
X185358452Y-73350476D01*
X185406071Y-73398095D01*
X185501309Y-73445714D01*
X185739404Y-73445714D01*
X185834642Y-73398095D01*
X185882261Y-73350476D01*
X185929880Y-73255238D01*
X185929880Y-72969523D01*
X185882261Y-72874285D01*
X185834642Y-72826666D01*
D11*
%TO.C,C7*%
X158974000Y-59529229D02*
X158974000Y-60051733D01*
X157504000Y-59529229D02*
X157504000Y-60051733D01*
%TO.C,C5*%
X172516000Y-52431733D02*
X172516000Y-51909229D01*
X171046000Y-52431733D02*
X171046000Y-51909229D01*
%TO.C,R2*%
X141561500Y-53712417D02*
X141561500Y-54166545D01*
X143031500Y-53712417D02*
X143031500Y-54166545D01*
%TO.C,Y1*%
X175755500Y-46268481D02*
X171755500Y-46268481D01*
X175755500Y-42968481D02*
X175755500Y-46268481D01*
%TO.C,C6*%
X169422252Y-62325481D02*
X168899748Y-62325481D01*
X169422252Y-63795481D02*
X168899748Y-63795481D01*
D10*
%TO.C,USB1*%
X144430500Y-42000000D02*
X144430500Y-47450000D01*
X136730500Y-47450000D02*
X144430500Y-47450000D01*
X136730500Y-42000000D02*
X136730500Y-47450000D01*
D11*
%TO.C,D4*%
X182477500Y-144910000D02*
X182477500Y-141010000D01*
X184477500Y-144910000D02*
X184477500Y-141010000D01*
X184477500Y-144910000D02*
X182477500Y-144910000D01*
%TO.C,U1*%
X168865500Y-50988481D02*
X168865500Y-51713481D01*
X168865500Y-58208481D02*
X168865500Y-57483481D01*
X168140500Y-50988481D02*
X168865500Y-50988481D01*
X162370500Y-58208481D02*
X161645500Y-58208481D01*
X168140500Y-58208481D02*
X168865500Y-58208481D01*
X162370500Y-50988481D02*
X161645500Y-50988481D01*
X161645500Y-50988481D02*
X161645500Y-51713481D01*
%TO.C,R4*%
X174214000Y-58166417D02*
X174214000Y-58620545D01*
X172744000Y-58166417D02*
X172744000Y-58620545D01*
%TO.C,R3*%
X140364500Y-53712417D02*
X140364500Y-54166545D01*
X138894500Y-53712417D02*
X138894500Y-54166545D01*
%TO.C,R1*%
X156568000Y-48260417D02*
X156568000Y-48714545D01*
X158038000Y-48260417D02*
X158038000Y-48714545D01*
%TO.C,C3*%
X158754252Y-52959481D02*
X158231748Y-52959481D01*
X158754252Y-54429481D02*
X158231748Y-54429481D01*
%TO.C,C2*%
X168258000Y-44879733D02*
X168258000Y-44357229D01*
X169728000Y-44879733D02*
X169728000Y-44357229D01*
D10*
%TO.C,SW1*%
X119505500Y-55548481D02*
X119505500Y-50348481D01*
X114305500Y-50348481D02*
X114305500Y-55548481D01*
X119505500Y-50348481D02*
X114305500Y-50348481D01*
X114305500Y-55548481D02*
X119505500Y-55548481D01*
X117905500Y-52948481D02*
G75*
G03*
X117905500Y-52948481I-1000000J0D01*
G01*
D11*
%TO.C,D2*%
X114477500Y-144910000D02*
X112477500Y-144910000D01*
X114477500Y-144910000D02*
X114477500Y-141010000D01*
X112477500Y-144910000D02*
X112477500Y-141010000D01*
%TO.C,C4*%
X160832000Y-48748733D02*
X160832000Y-48226229D01*
X159362000Y-48748733D02*
X159362000Y-48226229D01*
%TO.C,D1*%
X114477500Y-74910000D02*
X112477500Y-74910000D01*
X112477500Y-74910000D02*
X112477500Y-71010000D01*
X114477500Y-74910000D02*
X114477500Y-71010000D01*
%TO.C,F1*%
X133495500Y-56346417D02*
X133495500Y-57550545D01*
X135315500Y-56346417D02*
X135315500Y-57550545D01*
%TO.C,C1*%
X179253000Y-44357229D02*
X179253000Y-44879733D01*
X177783000Y-44357229D02*
X177783000Y-44879733D01*
%TO.C,D3*%
X184477500Y-74910000D02*
X182477500Y-74910000D01*
X182477500Y-74910000D02*
X182477500Y-71010000D01*
X184477500Y-74910000D02*
X184477500Y-71010000D01*
%TD*%
M02*
