%TF.GenerationSoftware,KiCad,Pcbnew,(6.0.7)*%
%TF.CreationDate,2022-11-22T16:32:00-03:00*%
%TF.ProjectId,BigKeysPCB,4269674b-6579-4735-9043-422e6b696361,rev?*%
%TF.SameCoordinates,Original*%
%TF.FileFunction,Legend,Top*%
%TF.FilePolarity,Positive*%
%FSLAX46Y46*%
G04 Gerber Fmt 4.6, Leading zero omitted, Abs format (unit mm)*
G04 Created by KiCad (PCBNEW (6.0.7)) date 2022-11-22 16:32:00*
%MOMM*%
%LPD*%
G01*
G04 APERTURE LIST*
%ADD10C,0.300000*%
G04 APERTURE END LIST*
D10*
X132682857Y-106517142D02*
X132968571Y-106612380D01*
X133063809Y-106707619D01*
X133159047Y-106898095D01*
X133159047Y-107183809D01*
X133063809Y-107374285D01*
X132968571Y-107469523D01*
X132778095Y-107564761D01*
X132016190Y-107564761D01*
X132016190Y-105564761D01*
X132682857Y-105564761D01*
X132873333Y-105660000D01*
X132968571Y-105755238D01*
X133063809Y-105945714D01*
X133063809Y-106136190D01*
X132968571Y-106326666D01*
X132873333Y-106421904D01*
X132682857Y-106517142D01*
X132016190Y-106517142D01*
X134016190Y-107564761D02*
X134016190Y-106231428D01*
X134016190Y-105564761D02*
X133920952Y-105660000D01*
X134016190Y-105755238D01*
X134111428Y-105660000D01*
X134016190Y-105564761D01*
X134016190Y-105755238D01*
X135825714Y-106231428D02*
X135825714Y-107850476D01*
X135730476Y-108040952D01*
X135635238Y-108136190D01*
X135444761Y-108231428D01*
X135159047Y-108231428D01*
X134968571Y-108136190D01*
X135825714Y-107469523D02*
X135635238Y-107564761D01*
X135254285Y-107564761D01*
X135063809Y-107469523D01*
X134968571Y-107374285D01*
X134873333Y-107183809D01*
X134873333Y-106612380D01*
X134968571Y-106421904D01*
X135063809Y-106326666D01*
X135254285Y-106231428D01*
X135635238Y-106231428D01*
X135825714Y-106326666D01*
X136778095Y-107564761D02*
X136778095Y-105564761D01*
X137920952Y-107564761D02*
X137063809Y-106421904D01*
X137920952Y-105564761D02*
X136778095Y-106707619D01*
X139540000Y-107469523D02*
X139349523Y-107564761D01*
X138968571Y-107564761D01*
X138778095Y-107469523D01*
X138682857Y-107279047D01*
X138682857Y-106517142D01*
X138778095Y-106326666D01*
X138968571Y-106231428D01*
X139349523Y-106231428D01*
X139540000Y-106326666D01*
X139635238Y-106517142D01*
X139635238Y-106707619D01*
X138682857Y-106898095D01*
X140301904Y-106231428D02*
X140778095Y-107564761D01*
X141254285Y-106231428D02*
X140778095Y-107564761D01*
X140587619Y-108040952D01*
X140492380Y-108136190D01*
X140301904Y-108231428D01*
X141920952Y-107469523D02*
X142111428Y-107564761D01*
X142492380Y-107564761D01*
X142682857Y-107469523D01*
X142778095Y-107279047D01*
X142778095Y-107183809D01*
X142682857Y-106993333D01*
X142492380Y-106898095D01*
X142206666Y-106898095D01*
X142016190Y-106802857D01*
X141920952Y-106612380D01*
X141920952Y-106517142D01*
X142016190Y-106326666D01*
X142206666Y-106231428D01*
X142492380Y-106231428D01*
X142682857Y-106326666D01*
X143635238Y-106802857D02*
X145159047Y-106802857D01*
X147159047Y-107564761D02*
X146016190Y-107564761D01*
X146587619Y-107564761D02*
X146587619Y-105564761D01*
X146397142Y-105850476D01*
X146206666Y-106040952D01*
X146016190Y-106136190D01*
M02*
