%TF.GenerationSoftware,KiCad,Pcbnew,(6.0.7)*%
%TF.CreationDate,2022-11-22T16:32:00-03:00*%
%TF.ProjectId,BigKeysPCB,4269674b-6579-4735-9043-422e6b696361,rev?*%
%TF.SameCoordinates,Original*%
%TF.FileFunction,Copper,L2,Bot*%
%TF.FilePolarity,Positive*%
%FSLAX46Y46*%
G04 Gerber Fmt 4.6, Leading zero omitted, Abs format (unit mm)*
G04 Created by KiCad (PCBNEW (6.0.7)) date 2022-11-22 16:32:00*
%MOMM*%
%LPD*%
G01*
G04 APERTURE LIST*
G04 Aperture macros list*
%AMRoundRect*
0 Rectangle with rounded corners*
0 $1 Rounding radius*
0 $2 $3 $4 $5 $6 $7 $8 $9 X,Y pos of 4 corners*
0 Add a 4 corners polygon primitive as box body*
4,1,4,$2,$3,$4,$5,$6,$7,$8,$9,$2,$3,0*
0 Add four circle primitives for the rounded corners*
1,1,$1+$1,$2,$3*
1,1,$1+$1,$4,$5*
1,1,$1+$1,$6,$7*
1,1,$1+$1,$8,$9*
0 Add four rect primitives between the rounded corners*
20,1,$1+$1,$2,$3,$4,$5,0*
20,1,$1+$1,$4,$5,$6,$7,0*
20,1,$1+$1,$6,$7,$8,$9,0*
20,1,$1+$1,$8,$9,$2,$3,0*%
%AMHorizOval*
0 Thick line with rounded ends*
0 $1 width*
0 $2 $3 position (X,Y) of the first rounded end (center of the circle)*
0 $4 $5 position (X,Y) of the second rounded end (center of the circle)*
0 Add line between two ends*
20,1,$1,$2,$3,$4,$5,0*
0 Add two circle primitives to create the rounded ends*
1,1,$1,$2,$3*
1,1,$1,$4,$5*%
G04 Aperture macros list end*
%TA.AperFunction,ComponentPad*%
%ADD10HorizOval,2.250000X0.655001X0.730000X-0.655001X-0.730000X0*%
%TD*%
%TA.AperFunction,ComponentPad*%
%ADD11C,2.250000*%
%TD*%
%TA.AperFunction,ComponentPad*%
%ADD12HorizOval,2.250000X0.020000X0.290000X-0.020000X-0.290000X0*%
%TD*%
%TA.AperFunction,ComponentPad*%
%ADD13C,1.905000*%
%TD*%
%TA.AperFunction,ComponentPad*%
%ADD14R,1.905000X1.905000*%
%TD*%
%TA.AperFunction,SMDPad,CuDef*%
%ADD15RoundRect,0.250000X-0.475000X0.250000X-0.475000X-0.250000X0.475000X-0.250000X0.475000X0.250000X0*%
%TD*%
%TA.AperFunction,SMDPad,CuDef*%
%ADD16RoundRect,0.250000X0.475000X-0.250000X0.475000X0.250000X-0.475000X0.250000X-0.475000X-0.250000X0*%
%TD*%
%TA.AperFunction,SMDPad,CuDef*%
%ADD17RoundRect,0.250000X-0.450000X0.262500X-0.450000X-0.262500X0.450000X-0.262500X0.450000X0.262500X0*%
%TD*%
%TA.AperFunction,SMDPad,CuDef*%
%ADD18R,1.400000X1.200000*%
%TD*%
%TA.AperFunction,SMDPad,CuDef*%
%ADD19RoundRect,0.250000X0.250000X0.475000X-0.250000X0.475000X-0.250000X-0.475000X0.250000X-0.475000X0*%
%TD*%
%TA.AperFunction,SMDPad,CuDef*%
%ADD20R,0.500000X2.250000*%
%TD*%
%TA.AperFunction,ComponentPad*%
%ADD21O,1.700000X2.700000*%
%TD*%
%TA.AperFunction,SMDPad,CuDef*%
%ADD22R,1.200000X0.900000*%
%TD*%
%TA.AperFunction,SMDPad,CuDef*%
%ADD23RoundRect,0.062500X-0.475000X-0.062500X0.475000X-0.062500X0.475000X0.062500X-0.475000X0.062500X0*%
%TD*%
%TA.AperFunction,SMDPad,CuDef*%
%ADD24RoundRect,0.062500X-0.062500X-0.475000X0.062500X-0.475000X0.062500X0.475000X-0.062500X0.475000X0*%
%TD*%
%TA.AperFunction,SMDPad,CuDef*%
%ADD25R,5.200000X5.200000*%
%TD*%
%TA.AperFunction,SMDPad,CuDef*%
%ADD26R,1.800000X1.100000*%
%TD*%
%TA.AperFunction,SMDPad,CuDef*%
%ADD27RoundRect,0.250000X-0.625000X0.375000X-0.625000X-0.375000X0.625000X-0.375000X0.625000X0.375000X0*%
%TD*%
%TA.AperFunction,ViaPad*%
%ADD28C,0.800000*%
%TD*%
%TA.AperFunction,Conductor*%
%ADD29C,0.254000*%
%TD*%
%TA.AperFunction,Conductor*%
%ADD30C,0.304800*%
%TD*%
%TA.AperFunction,Conductor*%
%ADD31C,0.381000*%
%TD*%
%TA.AperFunction,Conductor*%
%ADD32C,0.203200*%
%TD*%
%TA.AperFunction,Conductor*%
%ADD33C,0.200000*%
%TD*%
G04 APERTURE END LIST*
D10*
%TO.P,MX4,1,COL*%
%TO.N,COL1*%
X172385001Y-139390000D03*
D11*
X173040000Y-138660000D03*
D12*
%TO.P,MX4,2,ROW*%
%TO.N,Net-(D4-Pad2)*%
X178060000Y-137870000D03*
D11*
X178080000Y-137580000D03*
D13*
%TO.P,MX4,3*%
%TO.N,N/C*%
X174270000Y-147740000D03*
D14*
%TO.P,MX4,4*%
X176810000Y-147740000D03*
%TD*%
D11*
%TO.P,MX2,1,COL*%
%TO.N,COL0*%
X103040000Y-138660000D03*
D10*
X102385001Y-139390000D03*
D12*
%TO.P,MX2,2,ROW*%
%TO.N,Net-(D2-Pad2)*%
X108060000Y-137870000D03*
D11*
X108080000Y-137580000D03*
D13*
%TO.P,MX2,3*%
%TO.N,N/C*%
X104270000Y-147740000D03*
D14*
%TO.P,MX2,4*%
X106810000Y-147740000D03*
%TD*%
D10*
%TO.P,MX3,1,COL*%
%TO.N,COL1*%
X172385001Y-69390000D03*
D11*
X173040000Y-68660000D03*
D12*
%TO.P,MX3,2,ROW*%
%TO.N,Net-(D3-Pad2)*%
X178060000Y-67870000D03*
D11*
X178080000Y-67580000D03*
D13*
%TO.P,MX3,3*%
%TO.N,N/C*%
X174270000Y-77740000D03*
D14*
%TO.P,MX3,4*%
X176810000Y-77740000D03*
%TD*%
D10*
%TO.P,MX1,1,COL*%
%TO.N,COL0*%
X102385001Y-69390000D03*
D11*
X103040000Y-68660000D03*
%TO.P,MX1,2,ROW*%
%TO.N,Net-(D1-Pad2)*%
X108080000Y-67580000D03*
D12*
X108060000Y-67870000D03*
D13*
%TO.P,MX1,3*%
%TO.N,N/C*%
X104270000Y-77740000D03*
D14*
%TO.P,MX1,4*%
X106810000Y-77740000D03*
%TD*%
D15*
%TO.P,C7,1*%
%TO.N,+5V*%
X158239000Y-58840481D03*
%TO.P,C7,2*%
%TO.N,GND*%
X158239000Y-60740481D03*
%TD*%
D16*
%TO.P,C5,1*%
%TO.N,+5V*%
X171781000Y-53120481D03*
%TO.P,C5,2*%
%TO.N,GND*%
X171781000Y-51220481D03*
%TD*%
D17*
%TO.P,R2,1*%
%TO.N,D+*%
X142296500Y-53026981D03*
%TO.P,R2,2*%
%TO.N,Net-(R2-Pad2)*%
X142296500Y-54851981D03*
%TD*%
D18*
%TO.P,Y1,1,1*%
%TO.N,Net-(C1-Pad2)*%
X174855500Y-45468481D03*
%TO.P,Y1,2,2*%
%TO.N,GND*%
X172655500Y-45468481D03*
%TO.P,Y1,3,3*%
%TO.N,Net-(C2-Pad2)*%
X172655500Y-43768481D03*
%TO.P,Y1,4,4*%
%TO.N,GND*%
X174855500Y-43768481D03*
%TD*%
D19*
%TO.P,C6,1*%
%TO.N,+5V*%
X170111000Y-63060481D03*
%TO.P,C6,2*%
%TO.N,GND*%
X168211000Y-63060481D03*
%TD*%
D20*
%TO.P,USB1,1,GND*%
%TO.N,GND*%
X142180500Y-46500000D03*
%TO.P,USB1,2,ID*%
%TO.N,unconnected-(USB1-Pad2)*%
X141380500Y-46500000D03*
%TO.P,USB1,3,D+*%
%TO.N,D+*%
X140580500Y-46500000D03*
%TO.P,USB1,4,D-*%
%TO.N,D-*%
X139780500Y-46500000D03*
%TO.P,USB1,5,VBUS*%
%TO.N,VCC*%
X138980500Y-46500000D03*
D21*
%TO.P,USB1,6,SHIELD*%
%TO.N,GND*%
X136930500Y-42000000D03*
X144230500Y-42000000D03*
X136930500Y-46500000D03*
X144230500Y-46500000D03*
%TD*%
D22*
%TO.P,D4,1,K*%
%TO.N,ROW1*%
X183477500Y-144310000D03*
%TO.P,D4,2,A*%
%TO.N,Net-(D4-Pad2)*%
X183477500Y-141010000D03*
%TD*%
D23*
%TO.P,U1,1,PE6*%
%TO.N,unconnected-(U1-Pad1)*%
X161918000Y-57098481D03*
%TO.P,U1,2,UVCC*%
%TO.N,+5V*%
X161918000Y-56598481D03*
%TO.P,U1,3,D-*%
%TO.N,Net-(R3-Pad2)*%
X161918000Y-56098481D03*
%TO.P,U1,4,D+*%
%TO.N,Net-(R2-Pad2)*%
X161918000Y-55598481D03*
%TO.P,U1,5,UGND*%
%TO.N,GND*%
X161918000Y-55098481D03*
%TO.P,U1,6,UCAP*%
%TO.N,Net-(C3-Pad1)*%
X161918000Y-54598481D03*
%TO.P,U1,7,VBUS*%
%TO.N,+5V*%
X161918000Y-54098481D03*
%TO.P,U1,8,PB0*%
%TO.N,unconnected-(U1-Pad8)*%
X161918000Y-53598481D03*
%TO.P,U1,9,PB1*%
%TO.N,unconnected-(U1-Pad9)*%
X161918000Y-53098481D03*
%TO.P,U1,10,PB2*%
%TO.N,unconnected-(U1-Pad10)*%
X161918000Y-52598481D03*
%TO.P,U1,11,PB3*%
%TO.N,unconnected-(U1-Pad11)*%
X161918000Y-52098481D03*
D24*
%TO.P,U1,12,PB7*%
%TO.N,unconnected-(U1-Pad12)*%
X162755500Y-51260981D03*
%TO.P,U1,13,~{RESET}*%
%TO.N,Net-(R1-Pad2)*%
X163255500Y-51260981D03*
%TO.P,U1,14,VCC*%
%TO.N,+5V*%
X163755500Y-51260981D03*
%TO.P,U1,15,GND*%
%TO.N,GND*%
X164255500Y-51260981D03*
%TO.P,U1,16,XTAL2*%
%TO.N,Net-(C2-Pad2)*%
X164755500Y-51260981D03*
%TO.P,U1,17,XTAL1*%
%TO.N,Net-(C1-Pad2)*%
X165255500Y-51260981D03*
%TO.P,U1,18,PD0*%
%TO.N,unconnected-(U1-Pad18)*%
X165755500Y-51260981D03*
%TO.P,U1,19,PD1*%
%TO.N,unconnected-(U1-Pad19)*%
X166255500Y-51260981D03*
%TO.P,U1,20,PD2*%
%TO.N,unconnected-(U1-Pad20)*%
X166755500Y-51260981D03*
%TO.P,U1,21,PD3*%
%TO.N,unconnected-(U1-Pad21)*%
X167255500Y-51260981D03*
%TO.P,U1,22,PD5*%
%TO.N,unconnected-(U1-Pad22)*%
X167755500Y-51260981D03*
D23*
%TO.P,U1,23,GND*%
%TO.N,GND*%
X168593000Y-52098481D03*
%TO.P,U1,24,AVCC*%
%TO.N,+5V*%
X168593000Y-52598481D03*
%TO.P,U1,25,PD4*%
%TO.N,unconnected-(U1-Pad25)*%
X168593000Y-53098481D03*
%TO.P,U1,26,PD6*%
%TO.N,unconnected-(U1-Pad26)*%
X168593000Y-53598481D03*
%TO.P,U1,27,PD7*%
%TO.N,ROW0*%
X168593000Y-54098481D03*
%TO.P,U1,28,PB4*%
%TO.N,COL1*%
X168593000Y-54598481D03*
%TO.P,U1,29,PB5*%
%TO.N,COL0*%
X168593000Y-55098481D03*
%TO.P,U1,30,PB6*%
%TO.N,ROW1*%
X168593000Y-55598481D03*
%TO.P,U1,31,PC6*%
%TO.N,unconnected-(U1-Pad31)*%
X168593000Y-56098481D03*
%TO.P,U1,32,PC7*%
%TO.N,unconnected-(U1-Pad32)*%
X168593000Y-56598481D03*
%TO.P,U1,33,~{HWB}/PE2*%
%TO.N,Net-(R4-Pad1)*%
X168593000Y-57098481D03*
D24*
%TO.P,U1,34,VCC*%
%TO.N,+5V*%
X167755500Y-57935981D03*
%TO.P,U1,35,GND*%
%TO.N,GND*%
X167255500Y-57935981D03*
%TO.P,U1,36,PF7*%
%TO.N,unconnected-(U1-Pad36)*%
X166755500Y-57935981D03*
%TO.P,U1,37,PF6*%
%TO.N,unconnected-(U1-Pad37)*%
X166255500Y-57935981D03*
%TO.P,U1,38,PF5*%
%TO.N,unconnected-(U1-Pad38)*%
X165755500Y-57935981D03*
%TO.P,U1,39,PF4*%
%TO.N,unconnected-(U1-Pad39)*%
X165255500Y-57935981D03*
%TO.P,U1,40,PF1*%
%TO.N,unconnected-(U1-Pad40)*%
X164755500Y-57935981D03*
%TO.P,U1,41,PF0*%
%TO.N,unconnected-(U1-Pad41)*%
X164255500Y-57935981D03*
%TO.P,U1,42,AREF*%
%TO.N,unconnected-(U1-Pad42)*%
X163755500Y-57935981D03*
%TO.P,U1,43,GND*%
%TO.N,GND*%
X163255500Y-57935981D03*
%TO.P,U1,44,AVCC*%
%TO.N,+5V*%
X162755500Y-57935981D03*
D25*
%TO.P,U1,45,GND*%
%TO.N,GND*%
X165255500Y-54598481D03*
%TD*%
D17*
%TO.P,R4,1*%
%TO.N,Net-(R4-Pad1)*%
X173479000Y-57480981D03*
%TO.P,R4,2*%
%TO.N,GND*%
X173479000Y-59305981D03*
%TD*%
%TO.P,R3,1*%
%TO.N,D-*%
X139629500Y-53026981D03*
%TO.P,R3,2*%
%TO.N,Net-(R3-Pad2)*%
X139629500Y-54851981D03*
%TD*%
%TO.P,R1,1*%
%TO.N,+5V*%
X157303000Y-47574981D03*
%TO.P,R1,2*%
%TO.N,Net-(R1-Pad2)*%
X157303000Y-49399981D03*
%TD*%
D19*
%TO.P,C3,1*%
%TO.N,Net-(C3-Pad1)*%
X159443000Y-53694481D03*
%TO.P,C3,2*%
%TO.N,GND*%
X157543000Y-53694481D03*
%TD*%
D16*
%TO.P,C2,1*%
%TO.N,GND*%
X168993000Y-45568481D03*
%TO.P,C2,2*%
%TO.N,Net-(C2-Pad2)*%
X168993000Y-43668481D03*
%TD*%
D26*
%TO.P,SW1,1,1*%
%TO.N,GND*%
X113805500Y-54798481D03*
%TO.P,SW1,2,2*%
%TO.N,Net-(R1-Pad2)*%
X120005500Y-51098481D03*
%TO.P,SW1,3*%
%TO.N,N/C*%
X113805500Y-51098481D03*
%TO.P,SW1,4*%
X120005500Y-54798481D03*
%TD*%
D22*
%TO.P,D2,1,K*%
%TO.N,ROW1*%
X113477500Y-144310000D03*
%TO.P,D2,2,A*%
%TO.N,Net-(D2-Pad2)*%
X113477500Y-141010000D03*
%TD*%
D16*
%TO.P,C4,1*%
%TO.N,+5V*%
X160097000Y-49437481D03*
%TO.P,C4,2*%
%TO.N,GND*%
X160097000Y-47537481D03*
%TD*%
D22*
%TO.P,D1,1,K*%
%TO.N,ROW0*%
X113477500Y-74310000D03*
%TO.P,D1,2,A*%
%TO.N,Net-(D1-Pad2)*%
X113477500Y-71010000D03*
%TD*%
D27*
%TO.P,F1,1*%
%TO.N,VCC*%
X134405500Y-55548481D03*
%TO.P,F1,2*%
%TO.N,+5V*%
X134405500Y-58348481D03*
%TD*%
D15*
%TO.P,C1,1*%
%TO.N,GND*%
X178518000Y-43668481D03*
%TO.P,C1,2*%
%TO.N,Net-(C1-Pad2)*%
X178518000Y-45568481D03*
%TD*%
D22*
%TO.P,D3,1,K*%
%TO.N,ROW0*%
X183477500Y-74310000D03*
%TO.P,D3,2,A*%
%TO.N,Net-(D3-Pad2)*%
X183477500Y-71010000D03*
%TD*%
D28*
%TO.N,+5V*%
X174141000Y-53825481D03*
X160815526Y-56824981D03*
X172141000Y-60825481D03*
X160815526Y-53871981D03*
X158774185Y-47840962D03*
%TO.N,ROW1*%
X163862500Y-71608481D03*
X169069500Y-130790481D03*
%TO.N,COL0*%
X177197500Y-56733481D03*
%TO.N,Net-(R1-Pad2)*%
X121952500Y-50637481D03*
X155141000Y-49825481D03*
%TD*%
D29*
%TO.N,Net-(C1-Pad2)*%
X165209500Y-49381481D02*
X165209500Y-51214981D01*
X165209500Y-51214981D02*
X165255500Y-51260981D01*
X174855500Y-45468481D02*
X170942500Y-49381481D01*
X170942500Y-49381481D02*
X165209500Y-49381481D01*
X178418000Y-45468481D02*
X178518000Y-45568481D01*
X174855500Y-45468481D02*
X178418000Y-45468481D01*
%TO.N,Net-(C2-Pad2)*%
X164755500Y-49183481D02*
X164755500Y-51260981D01*
X167229001Y-48873481D02*
X165065500Y-48873481D01*
X172334001Y-43768481D02*
X167229001Y-48873481D01*
X169093000Y-43768481D02*
X172655500Y-43768481D01*
X168993000Y-43668481D02*
X169093000Y-43768481D01*
X172655500Y-43768481D02*
X172334001Y-43768481D01*
X165065500Y-48873481D02*
X164755500Y-49183481D01*
%TO.N,Net-(C3-Pad1)*%
X159443000Y-53694481D02*
X160347000Y-54598481D01*
X160347000Y-54598481D02*
X161918000Y-54598481D01*
D30*
%TO.N,GND*%
X164776100Y-55077881D02*
X165255500Y-54598481D01*
X113805500Y-58492481D02*
X116053500Y-60740481D01*
X113805500Y-54798481D02*
X113805500Y-58492481D01*
X116053500Y-60740481D02*
X158239000Y-60740481D01*
D31*
X174855500Y-43768481D02*
X178418000Y-43768481D01*
D29*
X171781000Y-51220481D02*
X170880400Y-52121081D01*
D30*
X162066896Y-60740481D02*
X163260300Y-59547077D01*
X167255500Y-60104981D02*
X167255500Y-57935981D01*
X170434000Y-65913000D02*
X168402000Y-65913000D01*
X150141600Y-54372581D02*
X149165100Y-54372581D01*
D29*
X174455500Y-43768481D02*
X174855500Y-43768481D01*
X167983736Y-52121081D02*
X167979336Y-52125481D01*
D30*
X168211000Y-61060481D02*
X167255500Y-60104981D01*
X149165100Y-54372581D02*
X142180500Y-47387981D01*
X150846900Y-55077881D02*
X150141600Y-54372581D01*
D32*
X172755500Y-45468481D02*
X174455500Y-43768481D01*
D30*
X168211000Y-61060481D02*
X168211000Y-63060481D01*
D29*
X174394500Y-42205481D02*
X174855500Y-42666481D01*
D30*
X168593000Y-52098481D02*
X168423543Y-52098481D01*
D29*
X164255500Y-53598481D02*
X165255500Y-54598481D01*
X167536500Y-45380481D02*
X167536500Y-42586481D01*
X172655500Y-45468481D02*
X172755500Y-45468481D01*
X167724500Y-45568481D02*
X167536500Y-45380481D01*
D30*
X161918000Y-55098481D02*
X162868000Y-55098481D01*
D29*
X164255500Y-51260981D02*
X164255500Y-53598481D01*
X164255500Y-48921481D02*
X164255500Y-51260981D01*
X168400943Y-52121081D02*
X167983736Y-52121081D01*
X174855500Y-42666481D02*
X174855500Y-43768481D01*
X163004000Y-47537481D02*
X164255500Y-48788981D01*
D30*
X157543000Y-53694481D02*
X157543000Y-55051981D01*
X157543000Y-55051981D02*
X157517100Y-55077881D01*
D29*
X168993000Y-45568481D02*
X167724500Y-45568481D01*
D30*
X168211000Y-65722000D02*
X168211000Y-63060481D01*
D29*
X168993000Y-45568481D02*
X167608500Y-45568481D01*
X167728500Y-52125481D02*
X165255500Y-54598481D01*
D31*
X178418000Y-43768481D02*
X178518000Y-43668481D01*
D30*
X158239000Y-60740481D02*
X162066896Y-60740481D01*
D29*
X164255500Y-48788981D02*
X164255500Y-48921481D01*
D30*
X168615600Y-52121081D02*
X168593000Y-52098481D01*
D29*
X160097000Y-47537481D02*
X163004000Y-47537481D01*
D30*
X167255500Y-56939981D02*
X167141000Y-56825481D01*
X162868000Y-55098481D02*
X163141000Y-54825481D01*
D29*
X163255500Y-56598481D02*
X165255500Y-54598481D01*
X167979336Y-52125481D02*
X167728500Y-52125481D01*
D30*
X168402000Y-65913000D02*
X168211000Y-65722000D01*
X168423543Y-52098481D02*
X168400943Y-52121081D01*
D29*
X167536500Y-42586481D02*
X167917500Y-42205481D01*
D30*
X142180500Y-47387981D02*
X142180500Y-46500000D01*
X173479000Y-59305981D02*
X173479000Y-62868000D01*
X157517100Y-55077881D02*
X150846900Y-55077881D01*
D29*
X167608500Y-45568481D02*
X164255500Y-48921481D01*
D30*
X163260300Y-59547077D02*
X163260300Y-57935981D01*
X173479000Y-62868000D02*
X170434000Y-65913000D01*
D29*
X170880400Y-52121081D02*
X168615600Y-52121081D01*
X167917500Y-42205481D02*
X174394500Y-42205481D01*
D30*
X167255500Y-57935981D02*
X167255500Y-56939981D01*
D29*
X163255500Y-57935981D02*
X163255500Y-56598481D01*
D30*
X157517100Y-55077881D02*
X164776100Y-55077881D01*
%TO.N,+5V*%
X158313000Y-47653481D02*
X160097000Y-49437481D01*
X158234500Y-47574981D02*
X158313000Y-47653481D01*
X158313000Y-47653481D02*
X158500481Y-47840962D01*
X162755500Y-57935981D02*
X162755500Y-58602481D01*
X171281600Y-52621081D02*
X168829496Y-52621081D01*
X161293743Y-54098481D02*
X161918000Y-54098481D01*
X174141000Y-53825481D02*
X172486000Y-53825481D01*
X161042026Y-56598481D02*
X160815526Y-56824981D01*
X161918000Y-56598481D02*
X161042026Y-56598481D01*
X167760300Y-58709781D02*
X167760300Y-57935981D01*
X160254500Y-56824981D02*
X158239000Y-58840481D01*
X160815526Y-56824981D02*
X160254500Y-56824981D01*
D29*
X134897500Y-58840481D02*
X134405500Y-58348481D01*
D30*
X162755500Y-58602481D02*
X162338500Y-59019481D01*
X162338500Y-59019481D02*
X162084500Y-59019481D01*
D29*
X163483481Y-49437481D02*
X163755500Y-49709500D01*
D30*
X161067243Y-53871981D02*
X161293743Y-54098481D01*
D29*
X158239000Y-58840481D02*
X134897500Y-58840481D01*
D30*
X167760300Y-58709781D02*
X170025300Y-58709781D01*
X162084500Y-59019481D02*
X160815526Y-57750507D01*
X170025300Y-58709781D02*
X172141000Y-60825481D01*
X172141000Y-61030481D02*
X170111000Y-63060481D01*
X158500481Y-47840962D02*
X158774185Y-47840962D01*
D29*
X158239000Y-58840481D02*
X158559000Y-58840481D01*
D30*
X157303000Y-47574981D02*
X158234500Y-47574981D01*
D29*
X160097000Y-49437481D02*
X163483481Y-49437481D01*
X163755500Y-49709500D02*
X163755500Y-51260981D01*
D30*
X160815526Y-57750507D02*
X160815526Y-56824981D01*
X171781000Y-53120481D02*
X171281600Y-52621081D01*
X172141000Y-60825481D02*
X172141000Y-61030481D01*
X172486000Y-53825481D02*
X171781000Y-53120481D01*
D29*
%TO.N,ROW0*%
X113477500Y-74310000D02*
X115414731Y-76247231D01*
X168593000Y-54098481D02*
X171978000Y-54098481D01*
X174442134Y-54552481D02*
X174868000Y-54126615D01*
X171978000Y-54098481D02*
X172209000Y-54329481D01*
X173839866Y-54552481D02*
X174442134Y-54552481D01*
X173616866Y-54329481D02*
X173839866Y-54552481D01*
X186548000Y-74310000D02*
X183477500Y-74310000D01*
X186944000Y-73914000D02*
X186548000Y-74310000D01*
X174868000Y-54126615D02*
X174868000Y-53702481D01*
X115414731Y-76247231D02*
X181540269Y-76247231D01*
X185274481Y-53702481D02*
X186944000Y-55372000D01*
X186944000Y-55372000D02*
X186944000Y-73914000D01*
X172209000Y-54329481D02*
X173616866Y-54329481D01*
X181540269Y-76247231D02*
X183477500Y-74310000D01*
X174868000Y-53702481D02*
X185274481Y-53702481D01*
%TO.N,Net-(D1-Pad2)*%
X110047500Y-67580000D02*
X113477500Y-71010000D01*
X108080000Y-67580000D02*
X110047500Y-67580000D01*
%TO.N,ROW1*%
X169069500Y-130790481D02*
X185833500Y-130790481D01*
X175384000Y-57377481D02*
X175384000Y-62360000D01*
X187611500Y-132568481D02*
X187611500Y-140176000D01*
X113477500Y-144310000D02*
X115414731Y-146247231D01*
X175384000Y-62360000D02*
X166135519Y-71608481D01*
X169668000Y-55598481D02*
X170304000Y-56234481D01*
X181952769Y-146247231D02*
X183540000Y-144660000D01*
X168593000Y-55598481D02*
X169668000Y-55598481D01*
X185833500Y-130790481D02*
X187611500Y-132568481D01*
X174241000Y-56234481D02*
X175384000Y-57377481D01*
X187611500Y-140176000D02*
X183477500Y-144310000D01*
X166135519Y-71608481D02*
X163862500Y-71608481D01*
X170304000Y-56234481D02*
X174241000Y-56234481D01*
X115414731Y-146247231D02*
X181952769Y-146247231D01*
%TO.N,Net-(D2-Pad2)*%
X108040000Y-138160000D02*
X110890000Y-141010000D01*
X110890000Y-141010000D02*
X113477500Y-141010000D01*
%TO.N,Net-(D3-Pad2)*%
X178080000Y-67580000D02*
X181510000Y-71010000D01*
X181510000Y-71010000D02*
X183477500Y-71010000D01*
%TO.N,Net-(D4-Pad2)*%
X178040000Y-138160000D02*
X180890000Y-141010000D01*
X180890000Y-141010000D02*
X183477500Y-141010000D01*
D30*
%TO.N,VCC*%
X138886000Y-51067981D02*
X134405500Y-55548481D01*
X138886000Y-45448481D02*
X138886000Y-51067981D01*
D29*
%TO.N,COL0*%
X171054000Y-55460481D02*
X177197500Y-55460481D01*
X177197500Y-55460481D02*
X177197500Y-56733481D01*
X168593000Y-55098481D02*
X170692000Y-55098481D01*
X170939000Y-55345481D02*
X171054000Y-55460481D01*
X170692000Y-55098481D02*
X170939000Y-55345481D01*
%TO.N,COL1*%
X168593000Y-54598481D02*
X171835947Y-54598481D01*
X171835947Y-54598481D02*
X172243947Y-55006481D01*
X172243947Y-55006481D02*
X178323481Y-55006481D01*
X179578000Y-62122000D02*
X173040000Y-68660000D01*
X178323481Y-55006481D02*
X179578000Y-56261000D01*
X179578000Y-56261000D02*
X179578000Y-62122000D01*
%TO.N,Net-(R1-Pad2)*%
X120466500Y-50637481D02*
X120005500Y-51098481D01*
X163255500Y-50479500D02*
X163255500Y-51260981D01*
X155566500Y-49399981D02*
X155141000Y-49825481D01*
X163172481Y-50396481D02*
X163255500Y-50479500D01*
X157303000Y-49399981D02*
X155566500Y-49399981D01*
X121952500Y-50637481D02*
X120466500Y-50637481D01*
X158299500Y-50396481D02*
X163172481Y-50396481D01*
X157303000Y-49399981D02*
X158299500Y-50396481D01*
D33*
%TO.N,D+*%
X140486000Y-45448481D02*
X140486000Y-51216481D01*
X140486000Y-51216481D02*
X142296500Y-53026981D01*
D29*
%TO.N,Net-(R2-Pad2)*%
X149813000Y-54851981D02*
X142296500Y-54851981D01*
X161918000Y-55598481D02*
X150559500Y-55598481D01*
X150559500Y-55598481D02*
X149813000Y-54851981D01*
D33*
%TO.N,D-*%
X139845500Y-52810981D02*
X139629500Y-53026981D01*
X139780500Y-52875981D02*
X139780500Y-46500000D01*
X139629500Y-53026981D02*
X139780500Y-52875981D01*
D29*
%TO.N,Net-(R3-Pad2)*%
X140876000Y-56098481D02*
X139629500Y-54851981D01*
X161918000Y-56098481D02*
X140876000Y-56098481D01*
%TO.N,Net-(R4-Pad1)*%
X173479000Y-57480981D02*
X170250500Y-57480981D01*
X169868000Y-57098481D02*
X168593000Y-57098481D01*
X170250500Y-57480981D02*
X169868000Y-57098481D01*
%TD*%
%TA.AperFunction,Conductor*%
%TO.N,GND*%
G36*
X136064155Y-40240021D02*
G01*
X136110648Y-40293677D01*
X136120752Y-40363951D01*
X136091258Y-40428531D01*
X136078614Y-40441185D01*
X135957448Y-40546327D01*
X135950028Y-40553958D01*
X135810674Y-40723911D01*
X135804650Y-40732678D01*
X135695924Y-40923682D01*
X135691459Y-40933346D01*
X135616469Y-41139941D01*
X135613698Y-41150208D01*
X135574377Y-41367655D01*
X135573444Y-41375884D01*
X135572570Y-41394402D01*
X135572500Y-41397377D01*
X135572500Y-41727885D01*
X135576975Y-41743124D01*
X135578365Y-41744329D01*
X135586048Y-41746000D01*
X138270385Y-41746000D01*
X138285624Y-41741525D01*
X138286829Y-41740135D01*
X138288500Y-41732452D01*
X138288500Y-41444794D01*
X138288275Y-41439485D01*
X138274376Y-41275675D01*
X138272586Y-41265203D01*
X138217370Y-41052465D01*
X138213835Y-41042425D01*
X138123563Y-40842030D01*
X138118394Y-40832744D01*
X137995650Y-40650425D01*
X137988981Y-40642130D01*
X137837272Y-40483100D01*
X137829314Y-40476058D01*
X137790403Y-40447108D01*
X137747690Y-40390397D01*
X137742418Y-40319597D01*
X137776260Y-40257185D01*
X137838472Y-40222978D01*
X137865616Y-40220019D01*
X143296034Y-40220019D01*
X143364155Y-40240021D01*
X143410648Y-40293677D01*
X143420752Y-40363951D01*
X143391258Y-40428531D01*
X143378614Y-40441185D01*
X143257448Y-40546327D01*
X143250028Y-40553958D01*
X143110674Y-40723911D01*
X143104650Y-40732678D01*
X142995924Y-40923682D01*
X142991459Y-40933346D01*
X142916469Y-41139941D01*
X142913698Y-41150208D01*
X142874377Y-41367655D01*
X142873444Y-41375884D01*
X142872570Y-41394402D01*
X142872500Y-41397377D01*
X142872500Y-41727885D01*
X142876975Y-41743124D01*
X142878365Y-41744329D01*
X142886048Y-41746000D01*
X145570385Y-41746000D01*
X145585624Y-41741525D01*
X145586829Y-41740135D01*
X145588500Y-41732452D01*
X145588500Y-41444794D01*
X145588275Y-41439485D01*
X145574376Y-41275675D01*
X145572586Y-41265203D01*
X145517370Y-41052465D01*
X145513835Y-41042425D01*
X145423563Y-40842030D01*
X145418394Y-40832744D01*
X145295650Y-40650425D01*
X145288981Y-40642130D01*
X145137272Y-40483100D01*
X145129314Y-40476058D01*
X145090403Y-40447108D01*
X145047690Y-40390397D01*
X145042418Y-40319597D01*
X145076260Y-40257185D01*
X145138472Y-40222978D01*
X145165616Y-40220019D01*
X145948000Y-40220019D01*
X146016121Y-40240021D01*
X146062614Y-40293677D01*
X146074000Y-40346019D01*
X146074000Y-48642000D01*
X146053998Y-48710121D01*
X146000342Y-48756614D01*
X145948000Y-48768000D01*
X141220500Y-48768000D01*
X141152379Y-48747998D01*
X141105886Y-48694342D01*
X141094500Y-48642000D01*
X141094500Y-48259500D01*
X141114502Y-48191379D01*
X141168158Y-48144886D01*
X141220500Y-48133500D01*
X141678634Y-48133500D01*
X141740816Y-48126745D01*
X141748216Y-48123971D01*
X141752442Y-48122966D01*
X141810739Y-48122966D01*
X141828146Y-48127105D01*
X141879014Y-48132631D01*
X141885828Y-48133000D01*
X141912385Y-48133000D01*
X141927624Y-48128525D01*
X141928829Y-48127135D01*
X141930500Y-48119452D01*
X141930500Y-48114884D01*
X142430500Y-48114884D01*
X142434975Y-48130123D01*
X142436365Y-48131328D01*
X142444048Y-48132999D01*
X142475169Y-48132999D01*
X142481990Y-48132629D01*
X142532852Y-48127105D01*
X142548104Y-48123479D01*
X142668554Y-48078324D01*
X142684149Y-48069786D01*
X142786224Y-47993285D01*
X142798785Y-47980724D01*
X142875286Y-47878649D01*
X142883825Y-47863052D01*
X142901887Y-47814872D01*
X142944528Y-47758107D01*
X143011090Y-47733407D01*
X143080439Y-47748614D01*
X143124389Y-47788734D01*
X143165349Y-47849575D01*
X143172019Y-47857870D01*
X143323728Y-48016900D01*
X143331686Y-48023941D01*
X143508025Y-48155141D01*
X143517062Y-48160745D01*
X143712984Y-48260357D01*
X143722835Y-48264357D01*
X143932740Y-48329534D01*
X143943124Y-48331817D01*
X143958543Y-48333861D01*
X143972707Y-48331665D01*
X143976500Y-48318478D01*
X143976500Y-48316192D01*
X144484500Y-48316192D01*
X144488473Y-48329723D01*
X144499080Y-48331248D01*
X144616921Y-48306523D01*
X144627117Y-48303463D01*
X144831529Y-48222737D01*
X144841061Y-48218006D01*
X145028962Y-48103984D01*
X145037552Y-48097720D01*
X145203552Y-47953673D01*
X145210972Y-47946042D01*
X145350326Y-47776089D01*
X145356350Y-47767322D01*
X145465076Y-47576318D01*
X145469541Y-47566654D01*
X145544531Y-47360059D01*
X145547302Y-47349792D01*
X145586623Y-47132345D01*
X145587556Y-47124116D01*
X145588430Y-47105598D01*
X145588500Y-47102623D01*
X145588500Y-46772115D01*
X145584025Y-46756876D01*
X145582635Y-46755671D01*
X145574952Y-46754000D01*
X144502615Y-46754000D01*
X144487376Y-46758475D01*
X144486171Y-46759865D01*
X144484500Y-46767548D01*
X144484500Y-48316192D01*
X143976500Y-48316192D01*
X143976500Y-46772115D01*
X143972025Y-46756876D01*
X143970635Y-46755671D01*
X143962952Y-46754000D01*
X142850888Y-46754000D01*
X142824105Y-46751121D01*
X142818952Y-46750000D01*
X142448615Y-46750000D01*
X142433376Y-46754475D01*
X142432171Y-46755865D01*
X142430500Y-46763548D01*
X142430500Y-48114884D01*
X141930500Y-48114884D01*
X141930500Y-48098700D01*
X141950502Y-48030579D01*
X141980936Y-47997873D01*
X141986578Y-47993645D01*
X141986581Y-47993642D01*
X141993761Y-47988261D01*
X141999142Y-47981081D01*
X141999145Y-47981078D01*
X142075729Y-47878891D01*
X142081115Y-47871705D01*
X142132245Y-47735316D01*
X142139000Y-47673134D01*
X142139000Y-46231885D01*
X142430500Y-46231885D01*
X142434975Y-46247124D01*
X142436365Y-46248329D01*
X142444048Y-46250000D01*
X142818303Y-46250000D01*
X142846123Y-46246000D01*
X143958385Y-46246000D01*
X143973624Y-46241525D01*
X143974829Y-46240135D01*
X143976500Y-46232452D01*
X143976500Y-46227885D01*
X144484500Y-46227885D01*
X144488975Y-46243124D01*
X144490365Y-46244329D01*
X144498048Y-46246000D01*
X145570385Y-46246000D01*
X145585624Y-46241525D01*
X145586829Y-46240135D01*
X145588500Y-46232452D01*
X145588500Y-45944794D01*
X145588275Y-45939485D01*
X145574376Y-45775675D01*
X145572586Y-45765203D01*
X145517370Y-45552465D01*
X145513835Y-45542425D01*
X145423563Y-45342030D01*
X145418394Y-45332744D01*
X145295650Y-45150425D01*
X145288981Y-45142130D01*
X145137272Y-44983100D01*
X145129314Y-44976059D01*
X144952975Y-44844859D01*
X144943938Y-44839255D01*
X144748016Y-44739643D01*
X144738165Y-44735643D01*
X144528260Y-44670466D01*
X144517876Y-44668183D01*
X144502457Y-44666139D01*
X144488293Y-44668335D01*
X144484500Y-44681522D01*
X144484500Y-46227885D01*
X143976500Y-46227885D01*
X143976500Y-44683808D01*
X143972527Y-44670277D01*
X143961920Y-44668752D01*
X143844079Y-44693477D01*
X143833883Y-44696537D01*
X143629471Y-44777263D01*
X143619939Y-44781994D01*
X143432038Y-44896016D01*
X143423448Y-44902280D01*
X143257448Y-45046327D01*
X143250028Y-45053958D01*
X143116026Y-45217384D01*
X143057366Y-45257379D01*
X142986396Y-45259310D01*
X142925648Y-45222565D01*
X142900610Y-45181722D01*
X142883825Y-45136948D01*
X142875286Y-45121351D01*
X142798785Y-45019276D01*
X142786224Y-45006715D01*
X142684149Y-44930214D01*
X142668554Y-44921676D01*
X142548106Y-44876522D01*
X142532851Y-44872895D01*
X142481986Y-44867369D01*
X142475172Y-44867000D01*
X142448615Y-44867000D01*
X142433376Y-44871475D01*
X142432171Y-44872865D01*
X142430500Y-44880548D01*
X142430500Y-46231885D01*
X142139000Y-46231885D01*
X142139000Y-45326866D01*
X142132245Y-45264684D01*
X142081115Y-45128295D01*
X142046792Y-45082498D01*
X141999145Y-45018922D01*
X141999142Y-45018919D01*
X141993761Y-45011739D01*
X141986581Y-45006358D01*
X141986578Y-45006355D01*
X141980936Y-45002127D01*
X141938421Y-44945269D01*
X141930500Y-44901300D01*
X141930500Y-44885116D01*
X141926025Y-44869877D01*
X141924635Y-44868672D01*
X141916952Y-44867001D01*
X141885831Y-44867001D01*
X141879010Y-44867371D01*
X141828151Y-44872895D01*
X141810736Y-44877035D01*
X141752442Y-44877034D01*
X141748216Y-44876029D01*
X141740816Y-44873255D01*
X141678634Y-44866500D01*
X141082366Y-44866500D01*
X141020184Y-44873255D01*
X141012785Y-44876029D01*
X141009646Y-44876775D01*
X140951354Y-44876775D01*
X140948215Y-44876029D01*
X140940816Y-44873255D01*
X140878634Y-44866500D01*
X140696124Y-44866500D01*
X140660849Y-44859483D01*
X140660458Y-44860941D01*
X140652479Y-44858803D01*
X140644850Y-44855643D01*
X140486000Y-44834730D01*
X140327150Y-44855643D01*
X140319521Y-44858803D01*
X140311542Y-44860941D01*
X140311290Y-44860002D01*
X140282685Y-44866500D01*
X140282366Y-44866500D01*
X140278991Y-44866867D01*
X140278984Y-44866867D01*
X140254225Y-44869557D01*
X140220184Y-44873255D01*
X140212785Y-44876029D01*
X140209646Y-44876775D01*
X140151354Y-44876775D01*
X140148215Y-44876029D01*
X140140816Y-44873255D01*
X140078634Y-44866500D01*
X139482366Y-44866500D01*
X139420184Y-44873255D01*
X139412785Y-44876029D01*
X139409646Y-44876775D01*
X139351354Y-44876775D01*
X139348215Y-44876029D01*
X139340816Y-44873255D01*
X139278634Y-44866500D01*
X139230587Y-44866500D01*
X139171628Y-44851854D01*
X139131298Y-44830500D01*
X139131295Y-44830499D01*
X139124585Y-44826946D01*
X139117220Y-44825096D01*
X138976812Y-44789828D01*
X138976808Y-44789828D01*
X138969441Y-44787977D01*
X138961841Y-44787937D01*
X138961840Y-44787937D01*
X138896147Y-44787593D01*
X138809480Y-44787139D01*
X138802100Y-44788911D01*
X138802098Y-44788911D01*
X138661317Y-44822710D01*
X138661315Y-44822711D01*
X138653937Y-44824482D01*
X138625315Y-44839255D01*
X138560139Y-44872895D01*
X138511791Y-44897849D01*
X138470102Y-44934217D01*
X138462860Y-44940075D01*
X138367239Y-45011739D01*
X138279885Y-45128295D01*
X138276733Y-45136703D01*
X138276732Y-45136705D01*
X138258770Y-45184619D01*
X138216129Y-45241384D01*
X138149568Y-45266084D01*
X138080219Y-45250877D01*
X138036268Y-45210757D01*
X137995650Y-45150425D01*
X137988981Y-45142130D01*
X137837272Y-44983100D01*
X137829314Y-44976059D01*
X137652975Y-44844859D01*
X137643938Y-44839255D01*
X137448016Y-44739643D01*
X137438165Y-44735643D01*
X137228260Y-44670466D01*
X137217876Y-44668183D01*
X137202457Y-44666139D01*
X137188293Y-44668335D01*
X137184500Y-44681522D01*
X137184500Y-48316192D01*
X137188473Y-48329723D01*
X137199080Y-48331248D01*
X137316921Y-48306523D01*
X137327117Y-48303463D01*
X137531529Y-48222737D01*
X137541061Y-48218006D01*
X137728962Y-48103984D01*
X137737552Y-48097720D01*
X137903552Y-47953673D01*
X137910972Y-47946042D01*
X138001666Y-47835433D01*
X138060326Y-47795438D01*
X138131296Y-47793507D01*
X138192044Y-47830251D01*
X138223283Y-47894006D01*
X138225100Y-47915324D01*
X138225100Y-48642000D01*
X138205098Y-48710121D01*
X138151442Y-48756614D01*
X138099100Y-48768000D01*
X135151000Y-48768000D01*
X135082879Y-48747998D01*
X135036386Y-48694342D01*
X135025000Y-48642000D01*
X135025000Y-47055206D01*
X135572500Y-47055206D01*
X135572725Y-47060515D01*
X135586624Y-47224325D01*
X135588414Y-47234797D01*
X135643630Y-47447535D01*
X135647165Y-47457575D01*
X135737437Y-47657970D01*
X135742606Y-47667256D01*
X135865350Y-47849575D01*
X135872019Y-47857870D01*
X136023728Y-48016900D01*
X136031686Y-48023941D01*
X136208025Y-48155141D01*
X136217062Y-48160745D01*
X136412984Y-48260357D01*
X136422835Y-48264357D01*
X136632740Y-48329534D01*
X136643124Y-48331817D01*
X136658543Y-48333861D01*
X136672707Y-48331665D01*
X136676500Y-48318478D01*
X136676500Y-46772115D01*
X136672025Y-46756876D01*
X136670635Y-46755671D01*
X136662952Y-46754000D01*
X135590615Y-46754000D01*
X135575376Y-46758475D01*
X135574171Y-46759865D01*
X135572500Y-46767548D01*
X135572500Y-47055206D01*
X135025000Y-47055206D01*
X135025000Y-46227885D01*
X135572500Y-46227885D01*
X135576975Y-46243124D01*
X135578365Y-46244329D01*
X135586048Y-46246000D01*
X136658385Y-46246000D01*
X136673624Y-46241525D01*
X136674829Y-46240135D01*
X136676500Y-46232452D01*
X136676500Y-44683808D01*
X136672527Y-44670277D01*
X136661920Y-44668752D01*
X136544079Y-44693477D01*
X136533883Y-44696537D01*
X136329471Y-44777263D01*
X136319939Y-44781994D01*
X136132038Y-44896016D01*
X136123448Y-44902280D01*
X135957448Y-45046327D01*
X135950028Y-45053958D01*
X135810674Y-45223911D01*
X135804650Y-45232678D01*
X135695924Y-45423682D01*
X135691459Y-45433346D01*
X135616469Y-45639941D01*
X135613698Y-45650208D01*
X135574377Y-45867655D01*
X135573444Y-45875884D01*
X135572570Y-45894402D01*
X135572500Y-45897377D01*
X135572500Y-46227885D01*
X135025000Y-46227885D01*
X135025000Y-42555206D01*
X135572500Y-42555206D01*
X135572725Y-42560515D01*
X135586624Y-42724325D01*
X135588414Y-42734797D01*
X135643630Y-42947535D01*
X135647165Y-42957575D01*
X135737437Y-43157970D01*
X135742606Y-43167256D01*
X135865350Y-43349575D01*
X135872019Y-43357870D01*
X136023728Y-43516900D01*
X136031686Y-43523941D01*
X136208025Y-43655141D01*
X136217062Y-43660745D01*
X136412984Y-43760357D01*
X136422835Y-43764357D01*
X136632740Y-43829534D01*
X136643124Y-43831817D01*
X136658543Y-43833861D01*
X136672707Y-43831665D01*
X136676500Y-43818478D01*
X136676500Y-43816192D01*
X137184500Y-43816192D01*
X137188473Y-43829723D01*
X137199080Y-43831248D01*
X137316921Y-43806523D01*
X137327117Y-43803463D01*
X137531529Y-43722737D01*
X137541061Y-43718006D01*
X137728962Y-43603984D01*
X137737552Y-43597720D01*
X137903552Y-43453673D01*
X137910972Y-43446042D01*
X138050326Y-43276089D01*
X138056350Y-43267322D01*
X138165076Y-43076318D01*
X138169541Y-43066654D01*
X138244531Y-42860059D01*
X138247302Y-42849792D01*
X138286623Y-42632345D01*
X138287556Y-42624116D01*
X138288430Y-42605598D01*
X138288500Y-42602623D01*
X138288500Y-42555206D01*
X142872500Y-42555206D01*
X142872725Y-42560515D01*
X142886624Y-42724325D01*
X142888414Y-42734797D01*
X142943630Y-42947535D01*
X142947165Y-42957575D01*
X143037437Y-43157970D01*
X143042606Y-43167256D01*
X143165350Y-43349575D01*
X143172019Y-43357870D01*
X143323728Y-43516900D01*
X143331686Y-43523941D01*
X143508025Y-43655141D01*
X143517062Y-43660745D01*
X143712984Y-43760357D01*
X143722835Y-43764357D01*
X143932740Y-43829534D01*
X143943124Y-43831817D01*
X143958543Y-43833861D01*
X143972707Y-43831665D01*
X143976500Y-43818478D01*
X143976500Y-43816192D01*
X144484500Y-43816192D01*
X144488473Y-43829723D01*
X144499080Y-43831248D01*
X144616921Y-43806523D01*
X144627117Y-43803463D01*
X144831529Y-43722737D01*
X144841061Y-43718006D01*
X145028962Y-43603984D01*
X145037552Y-43597720D01*
X145203552Y-43453673D01*
X145210972Y-43446042D01*
X145350326Y-43276089D01*
X145356350Y-43267322D01*
X145465076Y-43076318D01*
X145469541Y-43066654D01*
X145544531Y-42860059D01*
X145547302Y-42849792D01*
X145586623Y-42632345D01*
X145587556Y-42624116D01*
X145588430Y-42605598D01*
X145588500Y-42602623D01*
X145588500Y-42272115D01*
X145584025Y-42256876D01*
X145582635Y-42255671D01*
X145574952Y-42254000D01*
X144502615Y-42254000D01*
X144487376Y-42258475D01*
X144486171Y-42259865D01*
X144484500Y-42267548D01*
X144484500Y-43816192D01*
X143976500Y-43816192D01*
X143976500Y-42272115D01*
X143972025Y-42256876D01*
X143970635Y-42255671D01*
X143962952Y-42254000D01*
X142890615Y-42254000D01*
X142875376Y-42258475D01*
X142874171Y-42259865D01*
X142872500Y-42267548D01*
X142872500Y-42555206D01*
X138288500Y-42555206D01*
X138288500Y-42272115D01*
X138284025Y-42256876D01*
X138282635Y-42255671D01*
X138274952Y-42254000D01*
X137202615Y-42254000D01*
X137187376Y-42258475D01*
X137186171Y-42259865D01*
X137184500Y-42267548D01*
X137184500Y-43816192D01*
X136676500Y-43816192D01*
X136676500Y-42272115D01*
X136672025Y-42256876D01*
X136670635Y-42255671D01*
X136662952Y-42254000D01*
X135590615Y-42254000D01*
X135575376Y-42258475D01*
X135574171Y-42259865D01*
X135572500Y-42267548D01*
X135572500Y-42555206D01*
X135025000Y-42555206D01*
X135025000Y-40346019D01*
X135045002Y-40277898D01*
X135098658Y-40231405D01*
X135151000Y-40220019D01*
X135996034Y-40220019D01*
X136064155Y-40240021D01*
G37*
%TD.AperFunction*%
%TD*%
%TA.AperFunction,Conductor*%
%TO.N,GND*%
G36*
X181552121Y-40240021D02*
G01*
X181598614Y-40293677D01*
X181610000Y-40346019D01*
X181610000Y-46499000D01*
X181589998Y-46567121D01*
X181536342Y-46613614D01*
X181484000Y-46625000D01*
X179563486Y-46625000D01*
X179495365Y-46604998D01*
X179448872Y-46551342D01*
X179438768Y-46481068D01*
X179468262Y-46416488D01*
X179474313Y-46409982D01*
X179587134Y-46296964D01*
X179592305Y-46291784D01*
X179657459Y-46186085D01*
X179681275Y-46147449D01*
X179681276Y-46147447D01*
X179685115Y-46141219D01*
X179740797Y-45973342D01*
X179751500Y-45868881D01*
X179751500Y-45268081D01*
X179751163Y-45264831D01*
X179741238Y-45169173D01*
X179741237Y-45169169D01*
X179740526Y-45162315D01*
X179684550Y-44994535D01*
X179591478Y-44844133D01*
X179577399Y-44830078D01*
X179471486Y-44724350D01*
X179466303Y-44719176D01*
X179461765Y-44716379D01*
X179421176Y-44659128D01*
X179417946Y-44588205D01*
X179453572Y-44526794D01*
X179462068Y-44519419D01*
X179472207Y-44511383D01*
X179586739Y-44396652D01*
X179595751Y-44385241D01*
X179680816Y-44247238D01*
X179686963Y-44234057D01*
X179738138Y-44079771D01*
X179741005Y-44066395D01*
X179750672Y-43972043D01*
X179751000Y-43965627D01*
X179751000Y-43940596D01*
X179746525Y-43925357D01*
X179745135Y-43924152D01*
X179737452Y-43922481D01*
X177303116Y-43922481D01*
X177287877Y-43926956D01*
X177286672Y-43928346D01*
X177285001Y-43936029D01*
X177285001Y-43965576D01*
X177285338Y-43972095D01*
X177295257Y-44067687D01*
X177298149Y-44081081D01*
X177349588Y-44235265D01*
X177355761Y-44248443D01*
X177441063Y-44386288D01*
X177450099Y-44397689D01*
X177564828Y-44512219D01*
X177573762Y-44519275D01*
X177614823Y-44577193D01*
X177618053Y-44648116D01*
X177582426Y-44709527D01*
X177574593Y-44716327D01*
X177568652Y-44720003D01*
X177563479Y-44725185D01*
X177563474Y-44725189D01*
X177492789Y-44795998D01*
X177430507Y-44830078D01*
X177403616Y-44832981D01*
X176172620Y-44832981D01*
X176104499Y-44812979D01*
X176058006Y-44759323D01*
X176054638Y-44751210D01*
X176021194Y-44661998D01*
X176016011Y-44591191D01*
X176021194Y-44573540D01*
X176053978Y-44486090D01*
X176057605Y-44470832D01*
X176063131Y-44419967D01*
X176063500Y-44413153D01*
X176063500Y-44040596D01*
X176059025Y-44025357D01*
X176057635Y-44024152D01*
X176049952Y-44022481D01*
X174727500Y-44022481D01*
X174659379Y-44002479D01*
X174612886Y-43948823D01*
X174601500Y-43896481D01*
X174601500Y-43496366D01*
X175109500Y-43496366D01*
X175113975Y-43511605D01*
X175115365Y-43512810D01*
X175123048Y-43514481D01*
X176045384Y-43514481D01*
X176060623Y-43510006D01*
X176061828Y-43508616D01*
X176063499Y-43500933D01*
X176063499Y-43396366D01*
X177285000Y-43396366D01*
X177289475Y-43411605D01*
X177290865Y-43412810D01*
X177298548Y-43414481D01*
X178245885Y-43414481D01*
X178261124Y-43410006D01*
X178262329Y-43408616D01*
X178264000Y-43400933D01*
X178264000Y-43396366D01*
X178772000Y-43396366D01*
X178776475Y-43411605D01*
X178777865Y-43412810D01*
X178785548Y-43414481D01*
X179732884Y-43414481D01*
X179748123Y-43410006D01*
X179749328Y-43408616D01*
X179750999Y-43400933D01*
X179750999Y-43371386D01*
X179750662Y-43364867D01*
X179740743Y-43269275D01*
X179737851Y-43255881D01*
X179686412Y-43101697D01*
X179680239Y-43088519D01*
X179594937Y-42950674D01*
X179585901Y-42939273D01*
X179471171Y-42824742D01*
X179459760Y-42815730D01*
X179321757Y-42730665D01*
X179308576Y-42724518D01*
X179154290Y-42673343D01*
X179140914Y-42670476D01*
X179046562Y-42660809D01*
X179040145Y-42660481D01*
X178790115Y-42660481D01*
X178774876Y-42664956D01*
X178773671Y-42666346D01*
X178772000Y-42674029D01*
X178772000Y-43396366D01*
X178264000Y-43396366D01*
X178264000Y-42678597D01*
X178259525Y-42663358D01*
X178258135Y-42662153D01*
X178250452Y-42660482D01*
X177995905Y-42660482D01*
X177989386Y-42660819D01*
X177893794Y-42670738D01*
X177880400Y-42673630D01*
X177726216Y-42725069D01*
X177713038Y-42731242D01*
X177575193Y-42816544D01*
X177563792Y-42825580D01*
X177449261Y-42940310D01*
X177440249Y-42951721D01*
X177355184Y-43089724D01*
X177349037Y-43102905D01*
X177297862Y-43257191D01*
X177294995Y-43270567D01*
X177285328Y-43364919D01*
X177285000Y-43371336D01*
X177285000Y-43396366D01*
X176063499Y-43396366D01*
X176063499Y-43123812D01*
X176063129Y-43116991D01*
X176057605Y-43066129D01*
X176053979Y-43050877D01*
X176008824Y-42930427D01*
X176000286Y-42914832D01*
X175923785Y-42812757D01*
X175911224Y-42800196D01*
X175809149Y-42723695D01*
X175793554Y-42715157D01*
X175673106Y-42670003D01*
X175657851Y-42666376D01*
X175606986Y-42660850D01*
X175600172Y-42660481D01*
X175127615Y-42660481D01*
X175112376Y-42664956D01*
X175111171Y-42666346D01*
X175109500Y-42674029D01*
X175109500Y-43496366D01*
X174601500Y-43496366D01*
X174601500Y-42678597D01*
X174597025Y-42663358D01*
X174595635Y-42662153D01*
X174587952Y-42660482D01*
X174110831Y-42660482D01*
X174104010Y-42660852D01*
X174053148Y-42666376D01*
X174037896Y-42670002D01*
X173917446Y-42715157D01*
X173901852Y-42723695D01*
X173831482Y-42776434D01*
X173764976Y-42801282D01*
X173695593Y-42786229D01*
X173680352Y-42776434D01*
X173678455Y-42775012D01*
X173602205Y-42717866D01*
X173465816Y-42666736D01*
X173403634Y-42659981D01*
X171907366Y-42659981D01*
X171845184Y-42666736D01*
X171708795Y-42717866D01*
X171592239Y-42805220D01*
X171504885Y-42921776D01*
X171501733Y-42930185D01*
X171501732Y-42930186D01*
X171456362Y-43051210D01*
X171413721Y-43107975D01*
X171347159Y-43132675D01*
X171338380Y-43132981D01*
X170253543Y-43132981D01*
X170185422Y-43112979D01*
X170146399Y-43073284D01*
X170141972Y-43066129D01*
X170066478Y-42944133D01*
X169941303Y-42819176D01*
X169930890Y-42812757D01*
X169796968Y-42730206D01*
X169796966Y-42730205D01*
X169790738Y-42726366D01*
X169710995Y-42699917D01*
X169629389Y-42672849D01*
X169629387Y-42672849D01*
X169622861Y-42670684D01*
X169616025Y-42669984D01*
X169616022Y-42669983D01*
X169572969Y-42665572D01*
X169518400Y-42659981D01*
X168467600Y-42659981D01*
X168464354Y-42660318D01*
X168464350Y-42660318D01*
X168368692Y-42670243D01*
X168368688Y-42670244D01*
X168361834Y-42670955D01*
X168355298Y-42673136D01*
X168355296Y-42673136D01*
X168338928Y-42678597D01*
X168194054Y-42726931D01*
X168043652Y-42820003D01*
X167918695Y-42945178D01*
X167914855Y-42951408D01*
X167914854Y-42951409D01*
X167849049Y-43058165D01*
X167825885Y-43095743D01*
X167770203Y-43263620D01*
X167759500Y-43368081D01*
X167759500Y-43968881D01*
X167759837Y-43972127D01*
X167759837Y-43972131D01*
X167769752Y-44067687D01*
X167770474Y-44074647D01*
X167826450Y-44242427D01*
X167919522Y-44392829D01*
X167924704Y-44398002D01*
X167939881Y-44413153D01*
X168044697Y-44517786D01*
X168049235Y-44520583D01*
X168089824Y-44577834D01*
X168093054Y-44648757D01*
X168057428Y-44710168D01*
X168048932Y-44717543D01*
X168038793Y-44725579D01*
X167924261Y-44840310D01*
X167915249Y-44851721D01*
X167830184Y-44989724D01*
X167824037Y-45002905D01*
X167772862Y-45157191D01*
X167769995Y-45170567D01*
X167760328Y-45264919D01*
X167760000Y-45271336D01*
X167760000Y-45296366D01*
X167764475Y-45311605D01*
X167765865Y-45312810D01*
X167773548Y-45314481D01*
X169121000Y-45314481D01*
X169189121Y-45334483D01*
X169235614Y-45388139D01*
X169247000Y-45440481D01*
X169247000Y-45696481D01*
X169226998Y-45764602D01*
X169173342Y-45811095D01*
X169121000Y-45822481D01*
X167778116Y-45822481D01*
X167762877Y-45826956D01*
X167761672Y-45828346D01*
X167760001Y-45836029D01*
X167760001Y-45865576D01*
X167760338Y-45872095D01*
X167770257Y-45967687D01*
X167773149Y-45981081D01*
X167824588Y-46135265D01*
X167830761Y-46148443D01*
X167916063Y-46286288D01*
X167925099Y-46297689D01*
X168037432Y-46409827D01*
X168071511Y-46472110D01*
X168066508Y-46542930D01*
X168024011Y-46599803D01*
X167957512Y-46624671D01*
X167948414Y-46625000D01*
X165480000Y-46625000D01*
X165411879Y-46604998D01*
X165365386Y-46551342D01*
X165354000Y-46499000D01*
X165354000Y-40346019D01*
X165374002Y-40277898D01*
X165427658Y-40231405D01*
X165480000Y-40220019D01*
X181484000Y-40220019D01*
X181552121Y-40240021D01*
G37*
%TD.AperFunction*%
%TD*%
M02*
