%TF.GenerationSoftware,KiCad,Pcbnew,(6.0.7)*%
%TF.CreationDate,2022-11-22T16:32:00-03:00*%
%TF.ProjectId,BigKeysPCB,4269674b-6579-4735-9043-422e6b696361,rev?*%
%TF.SameCoordinates,Original*%
%TF.FileFunction,Soldermask,Bot*%
%TF.FilePolarity,Negative*%
%FSLAX46Y46*%
G04 Gerber Fmt 4.6, Leading zero omitted, Abs format (unit mm)*
G04 Created by KiCad (PCBNEW (6.0.7)) date 2022-11-22 16:32:00*
%MOMM*%
%LPD*%
G01*
G04 APERTURE LIST*
G04 Aperture macros list*
%AMRoundRect*
0 Rectangle with rounded corners*
0 $1 Rounding radius*
0 $2 $3 $4 $5 $6 $7 $8 $9 X,Y pos of 4 corners*
0 Add a 4 corners polygon primitive as box body*
4,1,4,$2,$3,$4,$5,$6,$7,$8,$9,$2,$3,0*
0 Add four circle primitives for the rounded corners*
1,1,$1+$1,$2,$3*
1,1,$1+$1,$4,$5*
1,1,$1+$1,$6,$7*
1,1,$1+$1,$8,$9*
0 Add four rect primitives between the rounded corners*
20,1,$1+$1,$2,$3,$4,$5,0*
20,1,$1+$1,$4,$5,$6,$7,0*
20,1,$1+$1,$6,$7,$8,$9,0*
20,1,$1+$1,$8,$9,$2,$3,0*%
%AMHorizOval*
0 Thick line with rounded ends*
0 $1 width*
0 $2 $3 position (X,Y) of the first rounded end (center of the circle)*
0 $4 $5 position (X,Y) of the second rounded end (center of the circle)*
0 Add line between two ends*
20,1,$1,$2,$3,$4,$5,0*
0 Add two circle primitives to create the rounded ends*
1,1,$1,$2,$3*
1,1,$1,$4,$5*%
G04 Aperture macros list end*
%ADD10C,1.750000*%
%ADD11C,3.987800*%
%ADD12HorizOval,2.250000X0.655001X0.730000X-0.655001X-0.730000X0*%
%ADD13C,2.250000*%
%ADD14HorizOval,2.250000X0.020000X0.290000X-0.020000X-0.290000X0*%
%ADD15C,1.905000*%
%ADD16R,1.905000X1.905000*%
%ADD17RoundRect,0.250000X-0.475000X0.250000X-0.475000X-0.250000X0.475000X-0.250000X0.475000X0.250000X0*%
%ADD18RoundRect,0.250000X0.475000X-0.250000X0.475000X0.250000X-0.475000X0.250000X-0.475000X-0.250000X0*%
%ADD19RoundRect,0.250000X-0.450000X0.262500X-0.450000X-0.262500X0.450000X-0.262500X0.450000X0.262500X0*%
%ADD20R,1.400000X1.200000*%
%ADD21RoundRect,0.250000X0.250000X0.475000X-0.250000X0.475000X-0.250000X-0.475000X0.250000X-0.475000X0*%
%ADD22R,0.500000X2.250000*%
%ADD23O,1.700000X2.700000*%
%ADD24R,1.200000X0.900000*%
%ADD25RoundRect,0.062500X-0.475000X-0.062500X0.475000X-0.062500X0.475000X0.062500X-0.475000X0.062500X0*%
%ADD26RoundRect,0.062500X-0.062500X-0.475000X0.062500X-0.475000X0.062500X0.475000X-0.062500X0.475000X0*%
%ADD27R,5.200000X5.200000*%
%ADD28R,1.800000X1.100000*%
%ADD29RoundRect,0.250000X-0.625000X0.375000X-0.625000X-0.375000X0.625000X-0.375000X0.625000X0.375000X0*%
G04 APERTURE END LIST*
D10*
%TO.C,MX4*%
X180620000Y-142660000D03*
D11*
X175540000Y-142660000D03*
D10*
X170460000Y-142660000D03*
D12*
X172385001Y-139390000D03*
D13*
X173040000Y-138660000D03*
D14*
X178060000Y-137870000D03*
D13*
X178080000Y-137580000D03*
D15*
X174270000Y-147740000D03*
D16*
X176810000Y-147740000D03*
%TD*%
D10*
%TO.C,MX2*%
X100460000Y-142660000D03*
D11*
X105540000Y-142660000D03*
D10*
X110620000Y-142660000D03*
D13*
X103040000Y-138660000D03*
D12*
X102385001Y-139390000D03*
D14*
X108060000Y-137870000D03*
D13*
X108080000Y-137580000D03*
D15*
X104270000Y-147740000D03*
D16*
X106810000Y-147740000D03*
%TD*%
D11*
%TO.C,MX3*%
X175540000Y-72660000D03*
D10*
X170460000Y-72660000D03*
X180620000Y-72660000D03*
D12*
X172385001Y-69390000D03*
D13*
X173040000Y-68660000D03*
D14*
X178060000Y-67870000D03*
D13*
X178080000Y-67580000D03*
D15*
X174270000Y-77740000D03*
D16*
X176810000Y-77740000D03*
%TD*%
D11*
%TO.C,MX1*%
X105540000Y-72660000D03*
D10*
X100460000Y-72660000D03*
X110620000Y-72660000D03*
D12*
X102385001Y-69390000D03*
D13*
X103040000Y-68660000D03*
X108080000Y-67580000D03*
D14*
X108060000Y-67870000D03*
D15*
X104270000Y-77740000D03*
D16*
X106810000Y-77740000D03*
%TD*%
D17*
%TO.C,C7*%
X158239000Y-58840481D03*
X158239000Y-60740481D03*
%TD*%
D18*
%TO.C,C5*%
X171781000Y-53120481D03*
X171781000Y-51220481D03*
%TD*%
D19*
%TO.C,R2*%
X142296500Y-53026981D03*
X142296500Y-54851981D03*
%TD*%
D20*
%TO.C,Y1*%
X174855500Y-45468481D03*
X172655500Y-45468481D03*
X172655500Y-43768481D03*
X174855500Y-43768481D03*
%TD*%
D21*
%TO.C,C6*%
X170111000Y-63060481D03*
X168211000Y-63060481D03*
%TD*%
D22*
%TO.C,USB1*%
X142180500Y-46500000D03*
X141380500Y-46500000D03*
X140580500Y-46500000D03*
X139780500Y-46500000D03*
X138980500Y-46500000D03*
D23*
X136930500Y-42000000D03*
X144230500Y-42000000D03*
X136930500Y-46500000D03*
X144230500Y-46500000D03*
%TD*%
D24*
%TO.C,D4*%
X183477500Y-144310000D03*
X183477500Y-141010000D03*
%TD*%
D25*
%TO.C,U1*%
X161918000Y-57098481D03*
X161918000Y-56598481D03*
X161918000Y-56098481D03*
X161918000Y-55598481D03*
X161918000Y-55098481D03*
X161918000Y-54598481D03*
X161918000Y-54098481D03*
X161918000Y-53598481D03*
X161918000Y-53098481D03*
X161918000Y-52598481D03*
X161918000Y-52098481D03*
D26*
X162755500Y-51260981D03*
X163255500Y-51260981D03*
X163755500Y-51260981D03*
X164255500Y-51260981D03*
X164755500Y-51260981D03*
X165255500Y-51260981D03*
X165755500Y-51260981D03*
X166255500Y-51260981D03*
X166755500Y-51260981D03*
X167255500Y-51260981D03*
X167755500Y-51260981D03*
D25*
X168593000Y-52098481D03*
X168593000Y-52598481D03*
X168593000Y-53098481D03*
X168593000Y-53598481D03*
X168593000Y-54098481D03*
X168593000Y-54598481D03*
X168593000Y-55098481D03*
X168593000Y-55598481D03*
X168593000Y-56098481D03*
X168593000Y-56598481D03*
X168593000Y-57098481D03*
D26*
X167755500Y-57935981D03*
X167255500Y-57935981D03*
X166755500Y-57935981D03*
X166255500Y-57935981D03*
X165755500Y-57935981D03*
X165255500Y-57935981D03*
X164755500Y-57935981D03*
X164255500Y-57935981D03*
X163755500Y-57935981D03*
X163255500Y-57935981D03*
X162755500Y-57935981D03*
D27*
X165255500Y-54598481D03*
%TD*%
D19*
%TO.C,R4*%
X173479000Y-57480981D03*
X173479000Y-59305981D03*
%TD*%
%TO.C,R3*%
X139629500Y-53026981D03*
X139629500Y-54851981D03*
%TD*%
%TO.C,R1*%
X157303000Y-47574981D03*
X157303000Y-49399981D03*
%TD*%
D21*
%TO.C,C3*%
X159443000Y-53694481D03*
X157543000Y-53694481D03*
%TD*%
D18*
%TO.C,C2*%
X168993000Y-45568481D03*
X168993000Y-43668481D03*
%TD*%
D28*
%TO.C,SW1*%
X113805500Y-54798481D03*
X120005500Y-51098481D03*
X113805500Y-51098481D03*
X120005500Y-54798481D03*
%TD*%
D24*
%TO.C,D2*%
X113477500Y-144310000D03*
X113477500Y-141010000D03*
%TD*%
D18*
%TO.C,C4*%
X160097000Y-49437481D03*
X160097000Y-47537481D03*
%TD*%
D24*
%TO.C,D1*%
X113477500Y-74310000D03*
X113477500Y-71010000D03*
%TD*%
D29*
%TO.C,F1*%
X134405500Y-55548481D03*
X134405500Y-58348481D03*
%TD*%
D17*
%TO.C,C1*%
X178518000Y-43668481D03*
X178518000Y-45568481D03*
%TD*%
D24*
%TO.C,D3*%
X183477500Y-74310000D03*
X183477500Y-71010000D03*
%TD*%
M02*
